# xmcd
#
# Track frame offsets:
# 214
# 16438
# 31034
# 44538
# 58925
# 78090
# 90422
# 110048
# 125726
# 138916
# 150614
# 164445
# 178530
# 201032
# 211945
# 225642
# 238933
#
# Disc length: 3367 seconds
#
#
# Revision: 0
# Processed by: cddbd v1.5.1PL0 Copyright (c) Steve Scherf et al.
# Submitted via: FreeRIP 2.941 
#
DISCID=e10d2511
DTITLE=Reader's Digest Music - Country Roads Disk 4
DYEAR=2005
DGENRE=Country
TTITLE0=Lucille
TTITLE1=Harper Valley P.T.A.
TTITLE2=Wolverton Mountain
TTITLE3=P.T. 109
TTITLE4=Ode To Billie Joe
TTITLE5=Sixteen Tons
TTITLE6=Me And Bobby McGee
TTITLE7=I Recall A Gypsy Woman
TTITLE8=The Wayward Wind
TTITLE9=Little Green Apples
TTITLE10=Coat Of Many Colors
TTITLE11=I'm Just a Country Boy
TTITLE12=Danny Boy
TTITLE13=South Of The Border
TTITLE14=High Noon (Do Not Forsake Me)
TTITLE15=Mockin' Bird Hill
TTITLE16=Goodnight Irene
EXTD=
EXTT0=
EXTT1=
EXTT2=
EXTT3=
EXTT4=
EXTT5=
EXTT6=
EXTT7=
EXTT8=
EXTT9=
EXTT10=
EXTT11=
EXTT12=
EXTT13=
EXTT14=
EXTT15=
EXTT16=
PLAYORDER=
